<mxfile host="app.diagrams.net" modified="2023-08-15T11:12:17.504Z" agent="Mozilla/5.0 (Windows NT 10.0; Win64; x64) AppleWebKit/537.36 (KHTML, like Gecko) Chrome/114.0.0.0 Safari/537.36 OPR/100.0.0.0" etag="1Qy3tknzhbEdlx1CPLaY" version="21.6.8" type="device">
  <diagram name="Page-1" id="n_GYUQ8LvMh4qBrAte3b">
    <mxGraphModel dx="841" dy="468" grid="1" gridSize="10" guides="1" tooltips="1" connect="1" arrows="1" fold="1" page="1" pageScale="1" pageWidth="827" pageHeight="1169" math="0" shadow="0">
      <root>
        <mxCell id="0" />
        <mxCell id="1" parent="0" />
        <mxCell id="iK7vf5Q8Yyt2Be639b4Y-1" value="Student" style="rounded=0;whiteSpace=wrap;html=1;" vertex="1" parent="1">
          <mxGeometry x="40" y="240" width="120" height="80" as="geometry" />
        </mxCell>
        <mxCell id="iK7vf5Q8Yyt2Be639b4Y-2" value="Library" style="rounded=0;whiteSpace=wrap;html=1;" vertex="1" parent="1">
          <mxGeometry x="670" y="240" width="120" height="80" as="geometry" />
        </mxCell>
        <mxCell id="iK7vf5Q8Yyt2Be639b4Y-3" value="Library Management System" style="rounded=1;whiteSpace=wrap;html=1;" vertex="1" parent="1">
          <mxGeometry x="320" y="240" width="200" height="80" as="geometry" />
        </mxCell>
        <mxCell id="iK7vf5Q8Yyt2Be639b4Y-4" value="" style="endArrow=classic;html=1;rounded=0;entryX=0;entryY=0.5;entryDx=0;entryDy=0;exitX=1;exitY=0.5;exitDx=0;exitDy=0;" edge="1" parent="1" source="iK7vf5Q8Yyt2Be639b4Y-1" target="iK7vf5Q8Yyt2Be639b4Y-3">
          <mxGeometry relative="1" as="geometry">
            <mxPoint x="380" y="290" as="sourcePoint" />
            <mxPoint x="480" y="290" as="targetPoint" />
          </mxGeometry>
        </mxCell>
        <mxCell id="iK7vf5Q8Yyt2Be639b4Y-5" value="Label" style="edgeLabel;resizable=0;html=1;align=center;verticalAlign=middle;" connectable="0" vertex="1" parent="iK7vf5Q8Yyt2Be639b4Y-4">
          <mxGeometry relative="1" as="geometry" />
        </mxCell>
        <mxCell id="iK7vf5Q8Yyt2Be639b4Y-6" value="" style="endArrow=classic;html=1;rounded=0;exitX=1;exitY=0.25;exitDx=0;exitDy=0;entryX=0;entryY=0.25;entryDx=0;entryDy=0;" edge="1" parent="1" source="iK7vf5Q8Yyt2Be639b4Y-1" target="iK7vf5Q8Yyt2Be639b4Y-3">
          <mxGeometry relative="1" as="geometry">
            <mxPoint x="380" y="290" as="sourcePoint" />
            <mxPoint x="480" y="290" as="targetPoint" />
          </mxGeometry>
        </mxCell>
        <mxCell id="iK7vf5Q8Yyt2Be639b4Y-7" value="Label" style="edgeLabel;resizable=0;html=1;align=center;verticalAlign=middle;" connectable="0" vertex="1" parent="iK7vf5Q8Yyt2Be639b4Y-6">
          <mxGeometry relative="1" as="geometry" />
        </mxCell>
        <mxCell id="iK7vf5Q8Yyt2Be639b4Y-8" value="" style="endArrow=classic;html=1;rounded=0;entryX=1;entryY=0.75;entryDx=0;entryDy=0;exitX=0;exitY=0.75;exitDx=0;exitDy=0;" edge="1" parent="1" source="iK7vf5Q8Yyt2Be639b4Y-3" target="iK7vf5Q8Yyt2Be639b4Y-1">
          <mxGeometry relative="1" as="geometry">
            <mxPoint x="380" y="290" as="sourcePoint" />
            <mxPoint x="480" y="290" as="targetPoint" />
          </mxGeometry>
        </mxCell>
        <mxCell id="iK7vf5Q8Yyt2Be639b4Y-9" value="Label" style="edgeLabel;resizable=0;html=1;align=center;verticalAlign=middle;" connectable="0" vertex="1" parent="iK7vf5Q8Yyt2Be639b4Y-8">
          <mxGeometry relative="1" as="geometry" />
        </mxCell>
        <mxCell id="iK7vf5Q8Yyt2Be639b4Y-10" value="" style="endArrow=classic;html=1;rounded=0;exitX=1;exitY=0.25;exitDx=0;exitDy=0;entryX=0;entryY=0.25;entryDx=0;entryDy=0;" edge="1" parent="1" source="iK7vf5Q8Yyt2Be639b4Y-3" target="iK7vf5Q8Yyt2Be639b4Y-2">
          <mxGeometry relative="1" as="geometry">
            <mxPoint x="480" y="330" as="sourcePoint" />
            <mxPoint x="580" y="330" as="targetPoint" />
          </mxGeometry>
        </mxCell>
        <mxCell id="iK7vf5Q8Yyt2Be639b4Y-11" value="Label" style="edgeLabel;resizable=0;html=1;align=center;verticalAlign=middle;" connectable="0" vertex="1" parent="iK7vf5Q8Yyt2Be639b4Y-10">
          <mxGeometry relative="1" as="geometry" />
        </mxCell>
        <mxCell id="iK7vf5Q8Yyt2Be639b4Y-12" value="" style="endArrow=classic;html=1;rounded=0;exitX=1;exitY=0.5;exitDx=0;exitDy=0;entryX=0;entryY=0.5;entryDx=0;entryDy=0;" edge="1" parent="1" source="iK7vf5Q8Yyt2Be639b4Y-3" target="iK7vf5Q8Yyt2Be639b4Y-2">
          <mxGeometry relative="1" as="geometry">
            <mxPoint x="480" y="330" as="sourcePoint" />
            <mxPoint x="580" y="330" as="targetPoint" />
          </mxGeometry>
        </mxCell>
        <mxCell id="iK7vf5Q8Yyt2Be639b4Y-13" value="Label" style="edgeLabel;resizable=0;html=1;align=center;verticalAlign=middle;" connectable="0" vertex="1" parent="iK7vf5Q8Yyt2Be639b4Y-12">
          <mxGeometry relative="1" as="geometry" />
        </mxCell>
        <mxCell id="iK7vf5Q8Yyt2Be639b4Y-14" value="" style="endArrow=classic;html=1;rounded=0;entryX=1;entryY=0.75;entryDx=0;entryDy=0;exitX=0;exitY=0.75;exitDx=0;exitDy=0;" edge="1" parent="1" source="iK7vf5Q8Yyt2Be639b4Y-2" target="iK7vf5Q8Yyt2Be639b4Y-3">
          <mxGeometry relative="1" as="geometry">
            <mxPoint x="640" y="340" as="sourcePoint" />
            <mxPoint x="580" y="330" as="targetPoint" />
          </mxGeometry>
        </mxCell>
        <mxCell id="iK7vf5Q8Yyt2Be639b4Y-15" value="Label" style="edgeLabel;resizable=0;html=1;align=center;verticalAlign=middle;" connectable="0" vertex="1" parent="iK7vf5Q8Yyt2Be639b4Y-14">
          <mxGeometry relative="1" as="geometry" />
        </mxCell>
        <mxCell id="iK7vf5Q8Yyt2Be639b4Y-17" value="Librarian" style="rounded=0;whiteSpace=wrap;html=1;" vertex="1" parent="1">
          <mxGeometry x="360" y="400" width="120" height="80" as="geometry" />
        </mxCell>
        <mxCell id="iK7vf5Q8Yyt2Be639b4Y-20" value="" style="endArrow=classic;html=1;rounded=0;exitX=0.5;exitY=1;exitDx=0;exitDy=0;entryX=0.5;entryY=0;entryDx=0;entryDy=0;" edge="1" parent="1" source="iK7vf5Q8Yyt2Be639b4Y-3" target="iK7vf5Q8Yyt2Be639b4Y-17">
          <mxGeometry width="50" height="50" relative="1" as="geometry">
            <mxPoint x="400" y="470" as="sourcePoint" />
            <mxPoint x="450" y="420" as="targetPoint" />
          </mxGeometry>
        </mxCell>
        <mxCell id="iK7vf5Q8Yyt2Be639b4Y-21" value="" style="endArrow=classic;html=1;rounded=0;exitX=0.75;exitY=1;exitDx=0;exitDy=0;entryX=0.5;entryY=1;entryDx=0;entryDy=0;" edge="1" parent="1" source="iK7vf5Q8Yyt2Be639b4Y-3" target="iK7vf5Q8Yyt2Be639b4Y-2">
          <mxGeometry relative="1" as="geometry">
            <mxPoint x="370" y="440" as="sourcePoint" />
            <mxPoint x="700" y="370" as="targetPoint" />
            <Array as="points">
              <mxPoint x="470" y="360" />
              <mxPoint x="730" y="360" />
            </Array>
          </mxGeometry>
        </mxCell>
        <mxCell id="iK7vf5Q8Yyt2Be639b4Y-22" value="Label" style="edgeLabel;resizable=0;html=1;align=center;verticalAlign=middle;" connectable="0" vertex="1" parent="iK7vf5Q8Yyt2Be639b4Y-21">
          <mxGeometry relative="1" as="geometry" />
        </mxCell>
      </root>
    </mxGraphModel>
  </diagram>
</mxfile>
